<svg width="39" height="39" viewBox="0 0 39 39" fill="none" xmlns="http://www.w3.org/2000/svg">
<path d="M32.2516 0H6.17584C2.76502 0 0 2.76501 0 6.17583V32.2516C0 35.6624 2.76501 38.4275 6.17583 38.4275H32.2516C35.6624 38.4275 38.4275 35.6624 38.4275 32.2516V6.17584C38.4275 2.76502 35.6624 0 32.2516 0Z" fill="#2295FF"/>
<path opacity="0.2" d="M31.5655 11.6656L19.2139 15.7828L6.86218 11.6656L19.2139 7.54834L31.5655 11.6656Z" fill="#2295FF"/>
<path d="M6.86218 11.6655V21.9586" stroke="white" stroke-opacity="0.75" stroke-width="1.37241" stroke-linecap="round" stroke-linejoin="round"/>
<path d="M9.71838 31.2223C10.7483 29.6427 12.156 28.3449 13.814 27.4466C15.4721 26.5483 17.328 26.0779 19.2137 26.0779C21.0995 26.0779 22.9554 26.5483 24.6134 27.4466C26.2715 28.3449 27.6792 29.6427 28.7091 31.2223" fill="#2295FF"/>
<path d="M9.71838 31.2223C10.7483 29.6427 12.156 28.3449 13.814 27.4466C15.4721 26.5483 17.328 26.0779 19.2137 26.0779C21.0995 26.0779 22.9554 26.5483 24.6134 27.4466C26.2715 28.3449 27.6792 29.6427 28.7091 31.2223" stroke="white" stroke-opacity="0.75" stroke-width="1.37241" stroke-linecap="round" stroke-linejoin="round"/>
<path d="M31.5655 11.6656L19.2139 15.7828L6.86218 11.6656L19.2139 7.54834L31.5655 11.6656Z" fill="#2295FF" stroke="white" stroke-opacity="0.75" stroke-width="1.37241" stroke-linecap="round" stroke-linejoin="round"/>
<path d="M24.5275 14.0073C25.4717 15.0384 26.0955 16.3219 26.3229 17.7014C26.5503 19.0808 26.3715 20.4967 25.8082 21.7762C25.2449 23.0558 24.3215 24.1439 23.1506 24.9078C21.9797 25.6717 20.6118 26.0784 19.2137 26.0784C17.8156 26.0784 16.4477 25.6717 15.2768 24.9078C14.1059 24.1439 13.1825 23.0558 12.6192 21.7762C12.0559 20.4967 11.8771 19.0808 12.1045 17.7014C12.3319 16.3219 12.9557 15.0384 13.8999 14.0073" fill="#2295FF"/>
<path d="M24.5275 14.0073C25.4717 15.0384 26.0955 16.3219 26.3229 17.7014C26.5503 19.0808 26.3715 20.4967 25.8082 21.7762C25.2449 23.0558 24.3215 24.1439 23.1506 24.9078C21.9797 25.6717 20.6118 26.0784 19.2137 26.0784C17.8156 26.0784 16.4477 25.6717 15.2768 24.9078C14.1059 24.1439 13.1825 23.0558 12.6192 21.7762C12.0559 20.4967 11.8771 19.0808 12.1045 17.7014C12.3319 16.3219 12.9557 15.0384 13.8999 14.0073" stroke="white" stroke-opacity="0.75" stroke-width="1.37241" stroke-linecap="round" stroke-linejoin="round"/>
</svg>
