<svg width="91" height="30" viewBox="0 0 91 30" fill="none" xmlns="http://www.w3.org/2000/svg">
<path d="M0.42749 11.2136V2.80762C0.42749 2.04993 0.695539 1.40662 1.23164 0.877669C1.76773 0.334424 2.41462 0.062801 3.17231 0.062801C4.15158 0.069949 4.90926 0.341572 5.44536 0.877669C5.60262 1.04207 5.75987 1.2851 5.91713 1.60676L9.34815 8.46881L12.7792 1.60676C12.9364 1.2851 13.0937 1.04207 13.2509 0.877669C13.787 0.341572 14.5447 0.069949 15.524 0.062801C16.2817 0.062801 16.925 0.334424 17.4539 0.877669C17.9972 1.41377 18.2688 2.05708 18.2688 2.80762V11.2136H15.524V4.35158C15.524 3.9227 15.381 3.69397 15.0951 3.66537C14.9307 3.65108 14.8163 3.70826 14.752 3.83693L11.0637 11.2136H7.63264L3.94429 3.83693C3.87996 3.70826 3.76559 3.65108 3.60119 3.66537C3.31527 3.69397 3.17231 3.9227 3.17231 4.35158V11.2136H0.42749ZM23.0722 11.2136C22.3074 11.2136 21.6605 10.9456 21.1316 10.4095C20.5955 9.87338 20.3274 9.22649 20.3274 8.46881V2.97917C20.3274 2.22149 20.5955 1.57817 21.1316 1.04922C21.6677 0.505975 22.3146 0.234352 23.0722 0.234352H32.336V2.97917H23.7584C23.5654 2.97917 23.401 3.04708 23.2652 3.18289C23.1366 3.3187 23.0722 3.47953 23.0722 3.66537V4.35158H32.2181V7.0964H23.0722V7.7826C23.0722 7.9756 23.1366 8.14 23.2652 8.27581C23.401 8.40447 23.5654 8.46881 23.7584 8.46881H32.6791V11.2136H23.0722ZM39.5411 11.2136V2.97917H34.0515V0.234352H47.7756V2.97917H42.286V11.2136H39.5411ZM58.0687 7.0964L56.2781 3.52599C56.2066 3.40447 56.1173 3.34372 56.0101 3.34372C55.9028 3.34372 55.8099 3.40447 55.7313 3.52599L53.9514 7.0964H58.0687ZM48.4618 11.2136L53.2652 1.60676C53.4296 1.32084 53.6012 1.09211 53.7799 0.920557C54.316 0.377311 55.0594 0.0913929 56.0101 0.062801C56.9679 0.0913929 57.7113 0.377311 58.2402 0.920557C58.4189 1.09211 58.5905 1.32084 58.7549 1.60676L63.5583 11.2136H60.1273L59.098 9.15501H52.9221L51.8928 11.2136H48.4618ZM0.084388 29.2136V26.4688H10.7206C10.9064 26.4688 11.0672 26.4045 11.203 26.2758C11.3389 26.14 11.4068 25.9756 11.4068 25.7826C11.4068 25.5968 11.3389 25.4359 11.203 25.3001C11.0672 25.1643 10.9064 25.0964 10.7206 25.0964H1.7999C1.42106 25.0964 1.09582 24.9642 0.824202 24.6997C0.559728 24.4281 0.42749 24.1028 0.42749 23.724V19.6175C0.42749 19.2386 0.559728 18.9134 0.824202 18.6418C1.09582 18.3702 1.42106 18.2344 1.7999 18.2344H13.8085V20.9792H3.85851C3.66552 20.9792 3.50111 21.0471 3.3653 21.1829C3.23664 21.3187 3.17231 21.4795 3.17231 21.6654C3.17231 21.8584 3.23664 22.0228 3.3653 22.1586C3.50111 22.2872 3.66552 22.3516 3.85851 22.3516H12.7792C13.1509 22.3516 13.4725 22.4874 13.7441 22.759C14.0158 23.0306 14.1516 23.3523 14.1516 23.724V27.8412C14.1516 28.2201 14.0158 28.5453 13.7441 28.8169C13.4725 29.0814 13.1509 29.2136 12.7792 29.2136H0.084388ZM18.955 29.2136C18.1902 29.2136 17.5433 28.9456 17.0143 28.4095C16.4782 27.8734 16.2102 27.2265 16.2102 26.4688V20.9792C16.2102 20.2215 16.4782 19.5782 17.0143 19.0492C17.5504 18.506 18.1973 18.2344 18.955 18.2344H28.4439V20.9792H20.3274C19.9486 20.9792 19.6233 21.115 19.3517 21.3866C19.0872 21.6582 18.955 21.9799 18.955 22.3516V25.0964C18.955 25.4752 19.0872 25.8005 19.3517 26.0721C19.6233 26.3366 19.9486 26.4688 20.3274 26.4688H28.5619V29.2136H18.955ZM30.6205 29.2136V18.2344H33.3653V22.3516H41.5998V18.2344H44.3446V29.2136H41.5998V25.0964H33.3653V29.2136H30.6205ZM56.01 26.4688C56.3817 26.4688 56.7034 26.3366 56.975 26.0721C57.2466 25.8005 57.3825 25.4752 57.3825 25.0964V22.3516C57.3825 21.9799 57.2466 21.6582 56.975 21.3866C56.7034 21.115 56.3817 20.9792 56.01 20.9792H50.5204C50.1416 20.9792 49.8163 21.115 49.5447 21.3866C49.2802 21.6582 49.148 21.9799 49.148 22.3516V25.0964C49.148 25.4752 49.2802 25.8005 49.5447 26.0721C49.8163 26.3366 50.1416 26.4688 50.5204 26.4688H56.01ZM49.148 29.2136C48.3832 29.2136 47.7363 28.9456 47.2073 28.4095C46.6712 27.8734 46.4032 27.2265 46.4032 26.4688V20.9792C46.4032 20.2215 46.6712 19.5782 47.2073 19.0492C47.7434 18.506 48.3903 18.2344 49.148 18.2344H57.3825C58.1401 18.2344 58.7835 18.506 59.3124 19.0492C59.8557 19.5853 60.1273 20.2286 60.1273 20.9792V26.4688C60.1273 27.2336 59.8557 27.8805 59.3124 28.4095C58.7763 28.9456 58.133 29.2136 57.3825 29.2136H49.148ZM71.7928 26.4688C72.1644 26.4688 72.4861 26.3366 72.7577 26.0721C73.0293 25.8005 73.1652 25.4752 73.1652 25.0964V22.3516C73.1652 21.9799 73.0293 21.6582 72.7577 21.3866C72.4861 21.115 72.1644 20.9792 71.7928 20.9792H66.3031C65.9243 20.9792 65.599 21.115 65.3274 21.3866C65.0629 21.6582 64.9307 21.9799 64.9307 22.3516V25.0964C64.9307 25.4752 65.0629 25.8005 65.3274 26.0721C65.599 26.3366 65.9243 26.4688 66.3031 26.4688H71.7928ZM64.9307 29.2136C64.1659 29.2136 63.519 28.9456 62.99 28.4095C62.4539 27.8734 62.1859 27.2265 62.1859 26.4688V20.9792C62.1859 20.2215 62.4539 19.5782 62.99 19.0492C63.5261 18.506 64.173 18.2344 64.9307 18.2344H73.1652C73.9228 18.2344 74.5662 18.506 75.0951 19.0492C75.6384 19.5853 75.91 20.2286 75.91 20.9792V26.4688C75.91 27.2336 75.6384 27.8805 75.0951 28.4095C74.559 28.9456 73.9157 29.2136 73.1652 29.2136H64.9307ZM80.7134 29.2136C79.9486 29.2136 79.3017 28.9456 78.7727 28.4095C78.2366 27.8734 77.9686 27.2265 77.9686 26.4688V18.2344H80.7134V25.0964C80.7134 25.4752 80.8456 25.8005 81.1101 26.0721C81.3817 26.3366 81.707 26.4688 82.0858 26.4688H90.3203V29.2136H80.7134Z" fill="white" fill-opacity="0.75"/>
</svg>
